<?xml version="1.0" standalone="no"?>
<!DOCTYPE svg PUBLIC "-//W3C//DTD SVG 20010904//EN"
 "http://www.w3.org/TR/2001/REC-SVG-20010904/DTD/svg10.dtd">
<svg version="1.0" xmlns="http://www.w3.org/2000/svg"
 width="1024.000000pt" height="1024.000000pt" viewBox="0 0 1024.000000 1024.000000"
 preserveAspectRatio="xMidYMid meet">

<g transform="translate(0.000000,1024.000000) scale(0.100000,-0.100000)"
fill="#000000" stroke="none">
<path d="M4880 8999 c-292 -26 -582 -98 -860 -216 -633 -268 -1174 -811 -1445
-1447 -329 -776 -287 -1671 113 -2410 129 -239 280 -437 486 -641 432 -427
968 -693 1591 -786 122 -19 598 -19 720 -1 556 84 1068 321 1476 685 175 156
318 321 458 527 248 365 393 758 452 1225 19 149 16 532 -5 680 -90 621 -344
1139 -774 1572 -580 586 -1392 884 -2212 812z m659 -178 c742 -127 1369 -534
1777 -1152 211 -321 346 -683 401 -1080 23 -170 23 -508 0 -679 -106 -767
-516 -1421 -1156 -1842 -650 -427 -1421 -546 -2162 -333 -531 153 -1016 484
-1362 930 -376 485 -563 1099 -526 1733 53 915 587 1736 1403 2158 290 150
572 237 906 280 161 20 560 12 719 -15z"/>
<path d="M5013 8292 l-103 -237 25 -62 c31 -75 62 -196 71 -277 l7 -59 -39 27
c-48 32 -168 71 -250 81 -75 8 -204 -9 -306 -41 -43 -14 -155 -63 -249 -109
-190 -93 -297 -125 -420 -125 -86 0 -189 22 -234 50 -65 40 -125 13 -125 -56
0 -54 14 -70 85 -95 56 -21 64 -27 59 -44 -22 -71 -125 -337 -375 -967 l-284
-717 -32 -1 c-39 0 -42 -14 -13 -69 67 -132 284 -283 490 -340 238 -66 497
-44 718 60 148 69 304 198 343 284 26 56 24 65 -14 65 l-33 0 -306 768 c-319
797 -338 848 -338 885 0 21 3 22 86 18 114 -4 207 10 404 65 367 100 515 99
728 -6 56 -28 102 -55 102 -59 0 -5 -7 -14 -15 -21 -9 -7 -30 -31 -47 -52
l-30 -39 41 -58 41 -59 0 -259 c0 -440 -29 -1209 -60 -1588 -9 -110 -13 -127
-49 -198 l-40 -79 45 -68 c46 -71 104 -186 104 -206 0 -7 -32 -13 -88 -16
l-88 -4 -74 -62 c-92 -77 -206 -137 -312 -163 -46 -12 -100 -32 -120 -45 -48
-31 -80 -93 -82 -159 l-1 -50 883 -3 882 -2 0 47 c-1 112 -64 179 -199 212
-113 28 -196 69 -292 147 -94 77 -111 84 -199 84 l-69 0 15 42 c18 52 65 136
111 201 l34 48 -21 29 c-54 75 -68 128 -79 300 -29 423 -42 757 -48 1257 l-6
542 43 56 43 56 -53 54 c-30 30 -52 56 -49 58 25 20 117 69 169 90 176 69 328
63 650 -27 201 -57 286 -70 410 -64 l100 5 -6 -36 c-6 -33 -78 -219 -504
-1291 l-137 -345 -37 -3 c-20 -2 -36 -5 -36 -8 0 -27 67 -123 125 -181 191
-188 505 -289 785 -253 232 30 409 111 564 259 69 66 107 116 120 159 7 20 4
22 -27 22 l-34 0 -311 783 c-172 430 -320 807 -331 837 -10 30 -22 62 -25 70
-5 12 7 20 50 35 91 31 122 98 69 150 -29 30 -66 32 -103 6 -47 -34 -161 -55
-265 -48 -121 7 -240 46 -433 141 -171 84 -246 110 -366 126 -118 16 -228 1
-338 -47 -30 -13 -63 -31 -73 -41 -19 -16 -19 -15 -12 43 10 78 39 194 70 276
l26 66 -101 227 c-55 125 -100 231 -100 236 0 35 -27 -18 -117 -228z m-1443
-1862 l0 -770 -306 0 c-287 0 -306 1 -301 18 2 9 128 328 279 707 152 380 285
718 298 753 12 34 24 62 26 62 2 0 4 -346 4 -770z m380 -10 c161 -404 294
-741 297 -747 4 -10 -60 -13 -301 -13 l-306 0 1 768 c0 424 4 758 9 747 4 -11
140 -351 300 -755z m2647 -757 c-2 -2 -139 -2 -303 -1 l-300 3 273 685 c150
377 285 720 300 762 l28 77 3 -761 c1 -419 1 -763 -1 -765z m390 762 c162
-407 297 -746 300 -752 4 -10 -60 -13 -301 -13 l-306 0 -2 761 c-2 418 -1 763
2 765 2 3 6 -1 9 -8 2 -7 136 -346 298 -753z"/>
<path d="M2090 2869 c0 -23 5 -27 39 -33 26 -4 47 -15 60 -32 21 -26 21 -37
21 -476 l0 -449 -25 -24 c-16 -17 -35 -25 -60 -25 -32 0 -35 -2 -35 -30 l0
-30 220 0 220 0 0 28 c0 21 -5 28 -22 29 -39 3 -75 24 -87 49 -7 16 -11 97
-11 224 l0 200 271 0 270 0 -3 -210 c-3 -197 -4 -211 -24 -230 -12 -12 -40
-24 -63 -27 -37 -5 -41 -8 -41 -34 l0 -29 226 0 225 0 -3 27 c-3 24 -9 29 -41
34 -21 3 -48 16 -60 28 -22 21 -22 23 -22 470 l0 449 24 26 c15 16 41 29 63
32 33 6 38 10 38 33 l0 26 -225 0 -225 0 0 -27 c0 -22 5 -28 21 -28 39 0 87
-30 98 -62 6 -18 11 -110 11 -214 l0 -184 -270 0 -270 0 0 189 c0 104 4 201
10 215 10 27 56 56 90 56 15 0 20 6 20 28 l0 27 -220 0 -220 0 0 -26z"/>
<path d="M3370 2868 c0 -23 5 -27 40 -33 22 -4 50 -15 62 -25 23 -18 23 -19
28 -397 l5 -378 28 -61 c16 -34 47 -80 70 -102 159 -154 502 -158 674 -8 25
22 56 64 75 104 l33 67 5 365 c4 270 8 371 18 387 15 27 62 53 94 53 19 0 23
5 23 25 l-2 26 -191 2 -192 2 0 -27 c0 -23 4 -28 25 -28 38 0 92 -25 105 -49
8 -15 10 -130 8 -389 -3 -358 -4 -368 -25 -409 -56 -104 -201 -155 -340 -119
-118 30 -181 88 -208 191 -19 75 -22 678 -4 719 13 28 64 56 104 56 22 0 26 4
23 25 l-3 26 -228 2 -227 2 0 -27z"/>
<path d="M4624 2891 c-2 -2 -4 -14 -4 -26 0 -18 7 -24 41 -29 23 -4 51 -17 65
-31 l24 -24 0 -451 0 -451 -25 -24 c-16 -17 -35 -25 -60 -25 -32 0 -35 -2 -35
-30 l0 -30 230 0 230 0 0 25 c0 20 -6 25 -37 31 -49 9 -89 29 -97 49 -3 9 -6
212 -6 451 0 489 -1 485 68 503 20 6 43 11 50 11 6 0 12 12 12 28 l0 27 -226
0 c-124 0 -228 -2 -230 -4z"/>
<path d="M5294 2891 c-2 -2 -4 -15 -4 -28 0 -16 6 -23 19 -23 10 0 29 -8 42
-19 20 -16 22 -22 12 -44 -6 -14 -93 -116 -193 -226 l-182 -202 182 -240 c107
-142 180 -247 178 -257 -2 -10 -18 -21 -41 -26 -29 -8 -37 -14 -37 -33 l0 -23
225 0 225 0 0 30 c0 24 -4 30 -20 30 -58 0 -86 29 -353 369 l-176 224 88 96
c204 221 322 320 384 321 12 0 17 8 17 28 l0 27 -181 0 c-99 0 -183 -2 -185
-4z"/>
<path d="M5809 2895 c0 0 -2 -12 -4 -27 -3 -24 0 -28 21 -28 37 0 84 -28 94
-56 6 -14 10 -172 10 -362 0 -363 4 -402 54 -486 81 -139 291 -211 505 -172
198 35 315 146 341 323 5 38 10 204 10 371 0 335 3 350 61 371 18 6 40 11 50
11 14 0 19 7 19 28 l0 27 -185 0 -185 0 0 -26 c0 -23 5 -27 38 -33 21 -3 48
-16 60 -29 21 -23 22 -28 22 -377 0 -202 -4 -369 -9 -388 -26 -87 -88 -142
-194 -168 -110 -29 -241 -2 -310 64 -77 72 -89 155 -85 549 l3 291 24 26 c15
16 41 29 63 32 33 6 38 10 38 33 l0 26 -220 0 c-121 0 -220 0 -221 0z"/>
<path d="M7066 2892 c-2 -1 -1 -13 1 -26 4 -19 13 -25 43 -30 21 -3 48 -14 61
-25 l24 -19 3 -455 c3 -516 7 -491 -78 -505 -39 -7 -45 -11 -48 -35 l-3 -27
230 0 231 0 0 25 c0 21 -6 26 -42 32 -27 4 -53 17 -70 34 l-28 27 0 441 0 441
28 30 c19 22 39 33 67 37 35 4 40 8 40 29 l-2 25 -227 2 c-125 1 -229 1 -230
-1z"/>
<path d="M7740 2869 c0 -21 6 -28 29 -32 42 -9 49 -40 18 -85 -13 -20 -62 -77
-108 -127 -46 -49 -122 -132 -168 -183 l-83 -92 182 -243 c100 -133 183 -248
184 -256 1 -9 -14 -18 -36 -24 -31 -7 -38 -14 -38 -33 l0 -24 220 0 220 0 0
25 c0 19 -7 26 -27 31 -53 13 -96 58 -310 326 l-215 268 70 78 c104 114 282
285 322 309 19 12 50 24 68 28 26 5 32 11 32 33 l0 27 -180 0 -180 0 0 -26z"/>
</g>
</svg>
